<?xml version="1.0" encoding="UTF-8"?>
<svg version="1.1" xmlns="http://www.w3.org/2000/svg" width="48" height="48">
<path d="M0 0 C5.68619115 4.81303071 9.25163306 10.60332574 10.27734375 18 C10.62979727 25.21824809 8.2415033 30.80134999 3.6875 36.3125 C-1.60433888 41.92338946 -6.59234729 43.57398619 -14.19140625 44.05859375 C-21.12290408 43.9139867 -26.46544223 41.3718497 -31.49609375 36.6796875 C-36.42645014 31.17305568 -38.35655076 25.48067386 -38.20703125 18.140625 C-37.4874432 10.70035616 -33.64479767 4.77799353 -28 0 C-18.48081398 -5.51926746 -9.51918602 -5.51926746 0 0 Z M-32 9 C-32.41725678 12.62599422 -32.41725678 12.62599422 -32 16 C-30.96875 15.484375 -29.9375 14.96875 -28.875 14.4375 C-25.3164806 12.6582403 -22.81110719 12.95000108 -19 14 C-16.5078125 15.84765625 -16.5078125 15.84765625 -14.125 18.0625 C-9.92060897 21.63169466 -9.92060897 21.63169466 -4.6875 22.75 C-0.48260431 21.89476698 1.34629138 21.40006417 4 18 C4.51693193 14.93649813 4.560977 12.05880091 4 9 C2.23863645 6.81668311 2.23863645 6.81668311 0.0546875 6.8046875 C-2.97265625 6.90234375 -2.97265625 6.90234375 -6 7 C-5.505 7.5775 -5.01 8.155 -4.5 8.75 C-3 11 -3 11 -3 15 C-8.73269301 14.85300787 -11.82109687 12.10085838 -16.046875 8.59375 C-20.90601067 4.62869529 -27.34959953 4.63144199 -32 9 Z M-32 23 C-32.53603554 27.44143734 -32.50031654 29.24952518 -30 33 C-28.02252878 33.36297936 -28.02252878 33.36297936 -25.875 33.1875 C-24.59625 33.125625 -23.3175 33.06375 -22 33 C-22.495 32.4225 -22.99 31.845 -23.5 31.25 C-25 29 -25 29 -25 25 C-21.8967022 24.70496817 -20.38252646 24.75502587 -17.71875 26.4609375 C-16.9865625 27.09257812 -16.254375 27.72421875 -15.5 28.375 C-12.45190791 30.98305063 -9.88893083 32.88283819 -6 34 C-3.57072975 33.86078645 -3.57072975 33.86078645 -1.25 33.1875 C-0.47140625 32.99542969 0.3071875 32.80335937 1.109375 32.60546875 C2.99051322 32.16207233 2.99051322 32.16207233 4 31 C4.04092937 28.66702567 4.04241723 26.33294775 4 24 C3.505 24.33 3.01 24.66 2.5 25 C-1.17235957 26.46894383 -4.18484369 26.98085822 -8 26 C-10.68359375 24.2109375 -10.68359375 24.2109375 -13.5 22 C-17.96013752 18.42635004 -17.96013752 18.42635004 -23.375 17.1875 C-27.83014297 18.18606653 -29.43222091 19.22857446 -32 23 Z " fill="#F2842B" transform="translate(38,4)"/>
</svg>
