<svg width="1432" height="517" viewBox="0 0 1432 517" fill="none" xmlns="http://www.w3.org/2000/svg">
<path d="M115.398 108.974C124.473 107.523 145.543 109.147 154.703 110.628C202.566 118.364 234.238 144.256 269.271 174.638C284.192 187.662 299.184 200.61 314.24 213.479C336.632 232.429 368.864 261.573 400.386 253.63C410.637 251.087 419.459 244.566 424.892 235.508C429.146 228.361 430.933 219.919 430.344 211.656C428.166 181.437 401.033 162.669 381.255 143.084C377.405 139.27 371.991 135.927 370.684 130.487C369.447 125.359 372.952 121.014 377.987 120.313C387.431 120.019 397.125 120.182 406.639 120.172L447.572 120.152C461.603 120.156 479.183 118.509 490.741 128.009C511.729 145.268 524.46 174.411 528.304 200.792C533.679 237.645 523.364 270.558 501.446 300.083C452.819 361.185 370.831 370.475 308.788 324.961C295.148 314.953 283.481 304.35 270.879 293.132C247.552 272.366 224.576 250.743 199.326 232.316C139.005 189.972 83.8403 207.042 32.1106 252.021C26.0222 256.559 20.4714 265.527 12.7544 267.121C8.60985 267.978 3.69009 263.643 3.55043 259.395C2.42155 237.577 3.95085 214.76 3.24995 193.065C2.30111 163.702 7.36436 150.924 33.178 135.463C59.4086 119.751 84.7071 111.692 115.398 108.974Z" fill="white"/>
<path d="M123.589 274.26C132.688 272.881 143.568 273.708 152.673 274.885C235.146 285.521 279.272 374.998 353.36 406.705C403.141 428.014 450.679 412.061 491.445 380.367C497.448 375.696 508.571 363.389 514.766 361.21C516.842 360.48 519.007 360.8 520.936 361.813C523.268 363.036 524.87 364.773 525.555 367.354C526.76 371.884 526.875 447.42 525.952 454.493C525.254 459.868 523.505 464.744 520.616 469.331C506.29 492.107 463.595 506.452 438.468 512.007C386.592 523.469 340.738 511.187 296.66 482.984C281.847 473.393 264.664 458.433 251.428 446.824L210.782 411.215C189.539 392.706 160.24 364.593 129.838 372.339C119.068 375.049 109.827 381.943 104.168 391.502C83.2944 427.226 124.741 460.913 147.508 482.267C150.867 485.88 157.52 490.326 158.777 495.125C160.44 501.468 153.735 504.908 148.341 505.049C134.53 505.421 120.407 505.421 106.548 505.184C89.9248 504.895 72.9154 506.068 56.4173 504.415C41.9008 502.397 32.199 492.78 24.1239 481.472C-10.8963 432.422 -7.05158 370.821 30.8715 324.461C53.7802 295.951 87.1949 277.858 123.589 274.26Z" fill="white"/>
<path d="M597.869 371.173V113.936H702.533C733.244 113.936 758.673 119.956 778.819 131.995C799.211 144.033 809.407 164.18 809.407 192.434C809.407 207.912 805.968 221.303 799.088 232.604C792.209 243.906 782.013 252.996 768.5 259.876L831.519 371.91H770.711L716.537 272.774C713.343 273.266 708.429 273.511 701.796 273.511H650.938V372.278L597.869 371.173ZM704.007 223.022C718.748 223.022 729.804 222.162 737.175 220.443C744.545 218.477 749.459 215.406 751.916 211.229C754.619 206.807 755.97 200.542 755.97 192.434C755.97 185.063 754.496 179.413 751.548 175.482C748.845 171.55 743.563 168.725 735.701 167.005C728.084 165.04 716.783 164.057 701.796 164.057H650.938V223.022H704.007Z" fill="white"/>
<path d="M847.104 113.936H900.173V371.91H847.104V113.936Z" fill="white"/>
<path d="M1053.8 375.964C1027.02 375.964 1003.44 370.681 983.044 360.117C962.652 349.306 946.805 333.951 935.503 314.05C924.202 293.904 918.551 270.072 918.551 242.555C918.551 215.037 924.202 191.206 935.503 171.059C946.805 150.667 962.652 135.189 983.044 124.624C1003.68 113.814 1027.27 108.408 1053.8 108.408C1080.83 108.408 1104.54 113.814 1124.93 124.624C1145.57 135.189 1161.54 150.544 1172.84 170.691C1184.14 190.837 1189.79 214.546 1189.79 241.818C1189.79 269.58 1184.14 293.535 1172.84 313.682C1161.78 333.828 1145.94 349.306 1125.3 360.117C1104.91 370.681 1081.07 375.964 1053.8 375.964ZM972.357 242.555C972.357 270.317 978.99 291.078 992.257 304.837C1005.77 318.595 1026.29 325.475 1053.8 325.475C1081.57 325.475 1102.08 318.595 1115.35 304.837C1128.86 290.832 1135.62 270.072 1135.62 242.555C1135.62 186.538 1108.35 158.529 1053.8 158.529C1026.53 158.529 1006.14 165.531 992.626 179.535C979.113 193.54 972.357 214.546 972.357 242.555Z" fill="white"/>
<path d="M1319.48 375.964C1278.94 375.964 1249.33 367.733 1230.66 351.272C1211.99 334.811 1203.64 311.225 1205.6 280.514L1261.25 279.776C1261.25 291.815 1263.09 301.151 1266.78 307.785C1270.71 314.173 1276.73 318.718 1284.84 321.421C1293.19 324.123 1304.74 325.475 1319.48 325.475C1338.89 325.475 1353.26 323.018 1362.6 318.104C1372.18 313.19 1376.97 305.819 1376.97 295.992C1376.97 289.604 1375.86 284.813 1373.65 281.619C1371.69 278.425 1367.39 275.845 1360.75 273.88C1354.12 271.669 1343.56 269.58 1329.06 267.615L1296.26 262.824C1266.29 258.647 1243.56 250.662 1228.08 238.869C1212.6 226.83 1204.86 208.895 1204.86 185.063C1204.86 160.986 1214.45 142.314 1233.61 129.046C1252.77 115.779 1279.43 108.9 1313.58 108.408C1351.42 108.654 1379.43 116.639 1397.61 132.363C1415.79 148.087 1424.14 170.691 1422.67 200.173L1367.76 200.542C1367.76 184.572 1363.33 173.516 1354.49 167.374C1345.89 161.232 1332.38 158.16 1313.95 158.16C1276.6 158.16 1257.93 166.882 1257.93 184.326C1257.93 190.223 1258.92 194.768 1260.88 197.962C1263.09 200.91 1267.27 203.367 1273.41 205.333C1279.55 207.298 1289.26 209.264 1302.53 211.229L1337.17 216.389C1369.6 221.057 1393.43 229.656 1408.66 242.186C1424.14 254.471 1431.88 272.529 1431.88 296.36C1431.88 320.929 1422.05 340.339 1402.4 354.589C1382.74 368.839 1355.23 375.964 1319.85 375.964H1319.48Z" fill="white"/>
<path d="M597.869 420.995H635.74C651.531 420.995 663.798 424.965 672.541 432.905C681.284 440.755 685.655 452.219 685.655 467.296C685.655 482.73 681.016 494.506 671.738 502.625C662.46 510.654 649.479 514.669 632.796 514.669H597.869V420.995ZM632.93 501.822C646.044 501.822 655.724 498.967 661.969 493.257C668.214 487.459 671.336 478.894 671.336 467.564C671.336 456.323 668.437 447.937 662.638 442.406C656.928 436.785 647.962 433.975 635.74 433.975H611.786V501.822H632.93Z" fill="white"/>
<path d="M743.105 516.275C733.291 516.275 724.637 514.356 717.144 510.52C709.739 506.595 703.985 500.974 699.881 493.659C695.866 486.343 693.859 477.69 693.859 467.698C693.859 457.617 695.911 448.918 700.015 441.603C704.118 434.198 709.873 428.578 717.277 424.742C724.682 420.816 733.291 418.854 743.105 418.854C753.007 418.854 761.661 420.816 769.066 424.742C776.56 428.578 782.358 434.154 786.462 441.469C790.566 448.785 792.618 457.438 792.618 467.43C792.618 477.601 790.566 486.343 786.462 493.659C782.448 500.974 776.693 506.595 769.199 510.52C761.795 514.356 753.096 516.275 743.105 516.275ZM708.044 467.698C708.044 479.117 711.032 487.949 717.01 494.194C722.987 500.35 731.685 503.428 743.105 503.428C754.613 503.428 763.356 500.35 769.333 494.194C775.311 487.949 778.299 479.117 778.299 467.698C778.299 456.189 775.266 447.313 769.199 441.068C763.222 434.823 754.524 431.7 743.105 431.7C731.685 431.7 722.987 434.823 717.01 441.068C711.032 447.223 708.044 456.1 708.044 467.698Z" fill="white"/>
<path d="M842.059 420.995H910.976V434.109H855.976V459.401H908.835V472.382H855.976V501.688H910.976V514.669H842.059V420.995Z" fill="white"/>
<path d="M960.45 516.275C946.354 516.275 935.872 513.598 929.002 508.245C922.133 502.893 918.877 495.399 919.234 485.764L933.954 485.496C933.954 491.741 935.961 496.291 939.976 499.146C944.08 502 950.904 503.428 960.45 503.428C969.282 503.428 975.795 502.134 979.988 499.547C984.181 496.96 986.277 493.257 986.277 488.44C986.277 485.585 985.698 483.31 984.538 481.615C983.467 479.831 981.371 478.359 978.248 477.199C975.215 475.95 970.71 474.924 964.732 474.121L952.02 472.382C941.046 470.865 932.839 468.055 927.397 463.951C921.955 459.758 919.234 453.558 919.234 445.35C919.234 436.964 922.624 430.496 929.404 425.946C936.184 421.396 945.819 419.032 958.309 418.854C971.513 418.943 981.415 421.485 988.017 426.481C994.619 431.477 997.831 438.614 997.652 447.893H983.333C983.333 442.361 981.281 438.257 977.178 435.581C973.074 432.905 966.829 431.566 958.443 431.566C949.968 431.566 943.633 432.771 939.44 435.18C935.337 437.499 933.285 440.8 933.285 445.082C933.285 447.937 933.865 450.212 935.024 451.907C936.184 453.602 938.191 454.985 941.046 456.056C943.99 457.126 948.139 458.063 953.491 458.866L966.874 460.739C978.739 462.434 987.348 465.423 992.701 469.705C998.143 473.987 1000.86 480.277 1000.86 488.574C1000.86 497.138 997.384 503.918 990.426 508.914C983.467 513.821 973.52 516.275 960.584 516.275H960.45Z" fill="white"/>
<path d="M1009.6 420.995H1047.61C1073.21 420.995 1086.01 430.541 1086.01 449.632C1086.01 459.713 1082.53 467.163 1075.57 471.98C1068.7 476.798 1059.25 479.206 1047.2 479.206H1023.38V514.669H1009.6V420.995ZM1047.2 466.226C1053.63 466.226 1058.62 465.646 1062.19 464.486C1065.76 463.326 1068.26 461.542 1069.69 459.133C1071.2 456.725 1071.96 453.602 1071.96 449.766C1071.96 445.841 1071.2 442.763 1069.69 440.532C1068.26 438.213 1065.76 436.518 1062.19 435.447C1058.62 434.377 1053.58 433.841 1047.07 433.841H1023.38V466.226H1047.2Z" fill="white"/>
<path d="M1096.08 418.184H1110V511.858H1096.08V418.184ZM1107.72 396.104H1123.11L1107.19 414.304H1095.81L1107.72 396.104Z" fill="white"/>
<path d="M1131.27 514.535V420.995H1168.61C1179.94 420.995 1189.13 423.091 1196.18 427.284C1203.31 431.477 1206.88 438.481 1206.88 448.294C1206.88 460.159 1201.08 468.367 1189.48 472.917L1213.04 514.669H1196.98L1175.97 475.995C1173.47 476.262 1170.88 476.396 1168.21 476.396H1145.06V514.669L1131.27 514.535ZM1169.28 463.549C1175.34 463.549 1180.07 463.014 1183.46 461.944C1186.85 460.784 1189.22 459.133 1190.55 456.992C1191.98 454.762 1192.7 451.863 1192.7 448.294C1192.7 444.904 1191.94 442.183 1190.42 440.131C1188.99 437.99 1186.5 436.429 1182.93 435.447C1179.36 434.377 1174.45 433.841 1168.21 433.841H1145.06V463.549H1169.28Z" fill="white"/>
<path d="M1221.38 420.995H1235.3V514.669H1221.38V420.995Z" fill="white"/>
<path d="M1279.92 434.109H1244.06V420.995H1329.7V434.109H1293.7V514.669H1279.92V434.109Z" fill="white"/>
<path d="M1382.37 516.275C1372.55 516.275 1363.9 514.356 1356.41 510.52C1349 506.595 1343.25 500.974 1339.14 493.659C1335.13 486.343 1333.12 477.69 1333.12 467.698C1333.12 457.617 1335.17 448.918 1339.28 441.603C1343.38 434.198 1349.13 428.578 1356.54 424.742C1363.94 420.816 1372.55 418.854 1382.37 418.854C1392.27 418.854 1400.92 420.816 1408.33 424.742C1415.82 428.578 1421.62 434.154 1425.72 441.469C1429.83 448.785 1431.88 457.438 1431.88 467.43C1431.88 477.601 1429.83 486.343 1425.72 493.659C1421.71 500.974 1415.96 506.595 1408.46 510.52C1401.06 514.356 1392.36 516.275 1382.37 516.275ZM1347.31 467.698C1347.31 479.117 1350.29 487.949 1356.27 494.194C1362.25 500.35 1370.95 503.428 1382.37 503.428C1393.88 503.428 1402.62 500.35 1408.6 494.194C1414.57 487.949 1417.56 479.117 1417.56 467.698C1417.56 456.189 1414.53 447.313 1408.46 441.068C1402.48 434.823 1393.79 431.7 1382.37 431.7C1370.95 431.7 1362.25 434.823 1356.27 441.068C1350.29 447.223 1347.31 456.1 1347.31 467.698Z" fill="white"/>
<path d="M309.556 55.0099C305.084 55.0099 301.14 54.1358 297.725 52.3875C294.35 50.5985 291.728 48.0371 289.858 44.7032C288.028 41.3692 287.113 37.4254 287.113 32.8718C287.113 28.2775 288.048 24.3133 289.919 20.9794C291.789 17.6048 294.411 15.0434 297.786 13.2951C301.161 11.5061 305.084 10.6117 309.556 10.6117C314.964 10.6117 319.538 11.8924 323.278 14.4538C327.06 16.9746 329.621 20.5525 330.963 25.1875H324.193C323.136 22.4227 321.347 20.2882 318.826 18.7839C316.346 17.2389 313.256 16.4664 309.556 16.4664C304.352 16.4664 300.388 17.8894 297.664 20.7354C294.94 23.5408 293.578 27.5863 293.578 32.8718C293.578 38.076 294.94 42.1011 297.664 44.9471C300.388 47.7525 304.352 49.1552 309.556 49.1552C313.297 49.1552 316.387 48.4234 318.826 46.9597C321.306 45.496 323.095 43.3818 324.193 40.6171H330.902C329.438 45.4553 326.836 49.0739 323.095 51.4727C319.355 53.8308 314.842 55.0099 309.556 55.0099Z" fill="white"/>
<path d="M400.043 55.0099C395.57 55.0099 391.627 54.1358 388.211 52.3875C384.837 50.5985 382.214 48.0371 380.344 44.7032C378.515 41.3692 377.6 37.4254 377.6 32.8718C377.6 28.2775 378.535 24.3133 380.405 20.9794C382.275 17.6048 384.898 15.0434 388.272 13.2951C391.647 11.5061 395.57 10.6117 400.043 10.6117C404.556 10.6117 408.5 11.5061 411.874 13.2951C415.289 15.0434 417.932 17.5845 419.802 20.9184C421.673 24.2523 422.608 28.1961 422.608 32.7498C422.608 37.3848 421.673 41.3692 419.802 44.7032C417.973 48.0371 415.35 50.5985 411.935 52.3875C408.561 54.1358 404.596 55.0099 400.043 55.0099ZM384.064 32.8718C384.064 38.076 385.426 42.1011 388.15 44.9471C390.875 47.7525 394.839 49.1552 400.043 49.1552C405.288 49.1552 409.272 47.7525 411.996 44.9471C414.72 42.1011 416.082 38.076 416.082 32.8718C416.082 27.6269 414.7 23.5815 411.935 20.7354C409.211 17.8894 405.247 16.4664 400.043 16.4664C394.839 16.4664 390.875 17.8894 388.15 20.7354C385.426 23.5408 384.064 27.5863 384.064 32.8718Z" fill="white"/>
<path d="M469.277 11.5875H474.949L500.381 44.0933V11.5875H506.601V54.2781H501.051L475.437 21.9552V54.2781H469.277V11.5875Z" fill="white"/>
<path d="M553.332 11.5875H584.191V17.5641H559.674V29.0906H582.727V35.0673H559.674V54.2781H553.332V11.5875Z" fill="white"/>
<path d="M630.894 11.5875H662.302V17.5641H637.237V29.0906H661.327V35.0063H637.237V48.3624H662.302V54.2781H630.894V11.5875Z" fill="white"/>
<path d="M708.933 54.2171V11.5875H725.948C731.112 11.5875 735.3 12.5429 738.512 14.4538C741.764 16.3647 743.391 19.5564 743.391 24.0287C743.391 29.4362 740.748 33.1767 735.462 35.2503L746.196 54.2781H738.878L729.303 36.6529C728.164 36.7749 726.985 36.8359 725.766 36.8359H715.215V54.2781L708.933 54.2171ZM726.253 30.9812C729.018 30.9812 731.173 30.7372 732.718 30.2494C734.263 29.7208 735.34 28.9686 735.95 27.9928C736.601 26.9764 736.926 25.655 736.926 24.0287C736.926 22.4837 736.58 21.2437 735.889 20.3085C735.239 19.3327 734.1 18.6212 732.474 18.174C730.848 17.6861 728.612 17.4422 725.766 17.4422H715.215V30.9812H726.253Z" fill="white"/>
<path d="M792.69 11.5875H824.098V17.5641H799.032V29.0906H823.122V35.0063H799.032V48.3624H824.098V54.2781H792.69V11.5875ZM806.9 0H810.071L817.023 7.98924H811.474L808.424 4.20808L805.497 7.98924H799.947L806.9 0Z" fill="white"/>
<path d="M870.729 11.5875H876.401L901.832 44.0933V11.5875H908.053V54.2781H902.503L876.888 21.9552V54.2781H870.729V11.5875Z" fill="white"/>
<path d="M977.226 55.0099C972.754 55.0099 968.81 54.1358 965.395 52.3875C962.02 50.5985 959.398 48.0371 957.527 44.7032C955.698 41.3692 954.783 37.4254 954.783 32.8718C954.783 28.2775 955.718 24.3133 957.588 20.9794C959.459 17.6048 962.081 15.0434 965.456 13.2951C968.83 11.5061 972.754 10.6117 977.226 10.6117C982.634 10.6117 987.208 11.8924 990.948 14.4538C994.729 16.9746 997.291 20.5525 998.632 25.1875H991.863C990.806 22.4227 989.017 20.2882 986.496 18.7839C984.016 17.2389 980.926 16.4664 977.226 16.4664C972.022 16.4664 968.058 17.8894 965.334 20.7354C962.61 23.5408 961.248 27.5863 961.248 32.8718C961.248 38.076 962.61 42.1011 965.334 44.9471C968.058 47.7525 972.022 49.1552 977.226 49.1552C980.967 49.1552 984.057 48.4234 986.496 46.9597C988.976 45.496 990.765 43.3818 991.863 40.6171H998.571C997.108 45.4553 994.506 49.0739 990.765 51.4727C987.025 53.8308 982.512 55.0099 977.226 55.0099Z" fill="white"/>
<path d="M1045.27 11.5875H1051.61V54.2781H1045.27V11.5875Z" fill="white"/>
<path d="M1118 11.5875H1123.62L1143.74 54.2781H1136.67L1130.99 42.1417H1110.32L1104.71 54.2781H1097.82L1118 11.5875ZM1128.43 36.287L1120.69 19.6377L1113.06 36.287H1128.43Z" fill="white"/>
</svg>
