<svg width="1064" height="328" viewBox="0 0 1064 328" fill="none" xmlns="http://www.w3.org/2000/svg">
<path d="M741.11 4.99652C748.178 3.86673 764.59 5.13126 771.724 6.28451C809.005 12.3108 833.675 32.4779 860.962 56.1423C872.584 66.287 884.261 76.3718 895.988 86.3958C913.429 101.156 938.535 123.856 963.088 117.67C971.072 115.689 977.944 110.61 982.175 103.554C985.489 97.9877 986.881 91.412 986.422 84.9761C984.725 61.438 963.592 46.8199 948.187 31.5652C945.188 28.594 940.971 25.9901 939.953 21.7533C938.99 17.7591 941.719 14.3747 945.642 13.8283C952.997 13.5997 960.548 13.7265 967.958 13.719L999.841 13.7035C1010.77 13.706 1024.46 12.423 1033.47 19.8231C1049.81 33.2659 1059.73 55.9656 1062.72 76.514C1066.91 105.219 1058.88 130.855 1041.8 153.852C1003.93 201.444 940.067 208.68 891.742 173.229C881.117 165.435 872.03 157.176 862.214 148.438C844.045 132.263 826.149 115.421 806.481 101.068C759.498 68.0865 716.529 81.382 676.237 116.417C671.495 119.951 667.171 126.936 661.16 128.178C657.932 128.845 654.1 125.469 653.991 122.16C653.112 105.166 654.303 87.3933 653.757 70.4953C653.018 47.6244 656.962 37.6718 677.068 25.6288C697.499 13.3906 717.204 7.11339 741.11 4.99652Z" fill="white"/>
<path d="M747.489 133.738C754.577 132.664 763.051 133.308 770.143 134.225C834.382 142.509 868.751 212.203 926.459 236.9C965.233 253.498 1002.26 241.072 1034.01 216.385C1038.69 212.747 1047.35 203.161 1052.18 201.464C1053.8 200.895 1055.48 201.145 1056.98 201.933C1058.8 202.887 1060.05 204.239 1060.58 206.25C1061.52 209.778 1061.61 268.613 1060.89 274.123C1060.35 278.31 1058.99 282.107 1056.73 285.68C1045.58 303.421 1012.32 314.594 992.75 318.92C952.344 327.848 916.628 318.282 882.295 296.314C870.758 288.844 857.374 277.192 847.064 268.149L815.405 240.413C798.858 225.997 776.037 204.099 752.357 210.132C743.968 212.243 736.771 217.613 732.362 225.058C716.104 252.884 748.387 279.123 766.12 295.756C768.737 298.57 773.919 302.033 774.898 305.771C776.193 310.711 770.971 313.391 766.769 313.501C756.012 313.79 745.011 313.79 734.217 313.606C721.269 313.381 708.02 314.294 695.169 313.007C683.862 311.435 676.306 303.944 670.016 295.137C642.739 256.931 645.733 208.95 675.272 172.84C693.115 150.633 719.142 136.541 747.489 133.738Z" fill="white"/>
<path d="M165.403 327.201C132.653 327.201 103.809 320.742 78.8708 307.822C53.9326 294.601 34.5529 275.823 20.7318 251.485C6.91059 226.848 0 197.703 0 164.051C0 130.4 6.91059 101.255 20.7318 76.6175C34.5529 51.6793 53.9326 32.7503 78.8708 19.8305C104.11 6.61025 132.954 0.00012207 165.403 0.00012207C207.768 0.00012207 243.223 10.6665 271.766 31.9991C300.611 53.3318 318.939 83.2276 326.751 121.687H259.147C254.039 102.457 243.523 87.5843 227.599 77.0682C211.674 66.5521 190.943 61.294 165.403 61.294C132.052 61.294 107.114 69.8571 90.5888 86.9834C74.0635 104.11 65.8008 129.799 65.8008 164.051C65.8008 198.003 73.9132 223.392 90.1381 240.218C106.663 257.044 131.752 265.457 165.403 265.457C216.782 265.457 248.03 245.927 259.147 206.867H326.3C316.385 248.631 297.005 279.128 268.161 298.357C239.617 317.587 205.365 327.201 165.403 327.201Z" fill="white"/>
<path d="M349.25 321.342V6.76047H477.246C514.804 6.76047 545.901 14.1218 570.539 28.8443C595.477 43.5669 607.946 68.2046 607.946 102.758C607.946 121.687 603.74 138.062 595.327 151.883C586.914 165.704 574.445 176.821 557.92 185.234L634.988 322.244H560.624L494.372 201.008C490.466 201.609 484.457 201.909 476.345 201.909H414.149V322.695L349.25 321.342ZM479.049 140.165C497.076 140.165 510.597 139.113 519.611 137.01C528.625 134.606 534.634 130.851 537.639 125.743C540.944 120.334 542.596 112.673 542.596 102.758C542.596 93.7438 540.793 86.8332 537.188 82.0258C533.883 77.2184 527.423 73.7631 517.808 71.6599C508.494 69.2562 494.673 68.0544 476.345 68.0544H414.149V140.165H479.049Z" fill="white"/>
</svg>
