<svg width="1105" height="851" viewBox="0 0 1105 851" fill="none" xmlns="http://www.w3.org/2000/svg">
<path d="M240.532 1.17998C259.447 -1.84338 303.365 1.54054 322.457 4.62667C422.221 20.7531 488.239 74.7209 561.259 138.047C592.361 165.195 623.609 192.182 654.991 219.007C701.664 258.507 768.848 319.252 834.551 302.697C855.917 297.396 874.306 283.803 885.63 264.923C894.497 250.027 898.223 232.43 896.994 215.207C892.454 152.219 835.899 113.101 794.675 72.2785C786.649 64.3274 775.365 57.3593 772.641 46.0217C770.064 35.3331 777.368 26.2763 787.864 24.8141C807.548 24.2024 827.753 24.5416 847.584 24.5216L932.903 24.4802C962.149 24.4869 998.793 21.0535 1022.88 40.8563C1066.63 76.8296 1093.17 137.575 1101.18 192.563C1112.38 269.378 1090.88 337.979 1045.2 399.522C943.84 526.88 772.948 546.243 643.627 451.376C615.196 430.517 590.878 408.416 564.611 385.033C515.989 341.748 468.099 296.679 415.468 258.27C289.738 170.01 174.754 205.59 66.9303 299.343C54.2399 308.801 42.6699 327.494 26.5848 330.816C17.9461 332.602 7.69151 323.566 7.40039 314.713C5.0474 269.237 8.23503 221.676 6.77409 176.456C4.79635 115.253 15.35 88.6199 69.155 56.3924C123.829 23.6429 176.561 6.84479 240.532 1.17998Z" fill="white"/>
<path d="M257.604 345.697C276.569 342.822 299.247 344.546 318.226 347C490.13 369.168 582.105 555.671 736.531 621.761C840.293 666.176 939.38 632.925 1024.35 566.862C1036.87 557.127 1060.05 531.474 1072.96 526.933C1077.29 525.411 1081.8 526.079 1085.82 528.189C1090.68 530.739 1094.02 534.358 1095.45 539.74C1097.96 549.181 1098.2 706.626 1096.28 721.369C1094.82 732.573 1091.18 742.735 1085.15 752.297C1055.29 799.771 966.302 829.671 913.927 841.249C805.799 865.139 710.224 839.539 618.348 780.755C587.473 760.764 551.657 729.582 524.068 705.384L439.348 631.162C395.068 592.582 333.999 533.984 270.63 550.129C248.181 555.778 228.921 570.147 217.124 590.071C173.616 664.534 260.006 734.75 307.46 779.259C314.462 786.791 328.33 796.058 330.95 806.061C334.417 819.281 320.44 826.452 309.198 826.746C280.41 827.52 250.972 827.52 222.086 827.026C187.436 826.425 151.982 828.869 117.594 825.424C87.3366 821.217 67.1145 801.173 50.283 777.603C-22.7118 675.364 -14.6981 546.964 64.3475 450.334C112.098 390.908 181.746 353.196 257.604 345.697Z" fill="white"/>
</svg>
